PathFileType	4	(X/Y/Z)	D:\Vicon data\Senior Design EMG regression\Subject 1- Steven\Session 1\steven - static trial01.trc
DataRate	CameraRate	NumFrames	NumMarkers	Units	OrigDataRate	OrigDataStartFrame	OrigNumFrames
100.0	100.0	4	60	mm	100.0	1	582	
Frame#	Time	HEAD			C7			CLAV			STUR			LSHO			LHAR2			LHME			LRAH			LRAD			LULN			LMCM			RSHO			RHAR2			RHME			RRAH			RRAD			RULN			RMCM			LASI			RASI			LPSI			RPSI			LLAT			LLFC			LKNE			LLAN			LHEE			LTOE			RLAT			RLFC			RKNE			RLAN			RHEE			RTOE			RSMT			RMAN			LSMT			LMAN			RSAT1			RSAT			RMFC			LSAT1			LSAT			LMFC			BARB			RHAR1			RHGT			RHHB			RHHF			RHLE			RMCR			RMCA			RMCI			LHHF			LHHB			LHGT			LHAR1			LHLE			LMCR			LMCI			
		X1	Y1	Z1	X2	Y2	Z2	X3	Y3	Z3	X4	Y4	Z4	X5	Y5	Z5	X6	Y6	Z6	X7	Y7	Z7	X8	Y8	Z8	X9	Y9	Z9	X10	Y10	Z10	X11	Y11	Z11	X12	Y12	Z12	X13	Y13	Z13	X14	Y14	Z14	X15	Y15	Z15	X16	Y16	Z16	X17	Y17	Z17	X18	Y18	Z18	X19	Y19	Z19	X20	Y20	Z20	X21	Y21	Z21	X22	Y22	Z22	X23	Y23	Z23	X24	Y24	Z24	X25	Y25	Z25	X26	Y26	Z26	X27	Y27	Z27	X28	Y28	Z28	X29	Y29	Z29	X30	Y30	Z30	X31	Y31	Z31	X32	Y32	Z32	X33	Y33	Z33	X34	Y34	Z34	X35	Y35	Z35	X36	Y36	Z36	X37	Y37	Z37	X38	Y38	Z38	X39	Y39	Z39	X40	Y40	Z40	X41	Y41	Z41	X42	Y42	Z42	X43	Y43	Z43	X44	Y44	Z44	X45	Y45	Z45	X46	Y46	Z46	X47	Y47	Z47	X48	Y48	Z48	X49	Y49	Z49	X50	Y50	Z50	X51	Y51	Z51	X52	Y52	Z52	X53	Y53	Z53	X54	Y54	Z54	X55	Y55	Z55	X56	Y56	Z56	X57	Y57	Z57	X58	Y58	Z58	X59	Y59	Z59	X60	Y60	Z60	
1	0	-153.65628	1636.4467	-292.02048	-61.725761	1453.8993	-128.14505	-68.596924	1398.2621	-267.78696	-71.410721	1254.0139	-305.1951	-178.97705	1471.8187	-175.04482	-355.56342	1449.1382	-184.13612	-473.15683	1350.9219	-164.54732	-452.85834	1423.6489	-257.80823	-477.52063	1393.7485	-396.19647	-536.17938	1420.0997	-389.04547	-511.48682	1408.7578	-484.61136	54.336014	1463.4823	-165.23557	213.74858	1448.7272	-178.72696	351.36572	1351.6899	-169.03423	302.14368	1426.3538	-253.72467	296.3877	1396.6366	-398.84579	356.27518	1434.3165	-398.46497	324.38443	1429.9432	-489.77032	-192.43645	966.13977	-297.20425	73.230888	994.57367	-274.09653	-131.06261	986.49652	-149.07307	-20.528763	987.12372	-137.11501	-214.98903	608.0249	-271.9993	-202.20406	502.35553	-237.15614	-160.99713	475.14642	-275.72552	-181.39342	93.196617	-173.63445	-134.63947	68.152542	-111.6777	-145.24286	49.953896	-372.03772	116.7495	684.05096	-265.55701	94.253258	502.87704	-246.29297	42.307636	478.32391	-291.957	88.587654	104.03963	-188.1525	39.973949	62.948494	-119.14601	52.219669	47.775539	-382.75259	118.43167	40.44743	-336.64676	3.3324814	121.21057	-195.09666	-210.25937	43.698376	-323.16879	-101.57276	126.84775	-196.71356	88.704384	767.6731	-328.32214	44.586052	641.08722	-319.51544	-10.0532	491.07715	-236.85417	-206.60849	767.56348	-325.87689	-157.58453	632.80524	-318.45288	-106.88382	488.12524	-222.57906	-4.954401	1287.0668	-77.506836	268.52701	1434.3641	-137.83775	134.60239	1465.2638	-153.63956	82.163902	1446.9564	-113.60711	77.142136	1450.2671	-219.62805	359.61942	1433.6495	-165.35881	348.71896	1426.8246	-483.03897	360.48108	1422.0013	-442.8002	302.85608	1421.9224	-494.65305	-207.90326	1458.7075	-222.78741	-212.69156	1455.0522	-129.20836	-298.01877	1466.7025	-146.72131	-409.54691	1438.9897	-137.25351	-492.28766	1431.3113	-160.388	-537.3053	1404.6479	-477.785	-492.95398	1406.6581	-488.15051
2	0.01	-153.50087	1636.3016	-292.60406	-61.838074	1453.9896	-128.28169	-68.617081	1398.2814	-267.82056	-71.432762	1254.0686	-305.2677	-178.98607	1471.9816	-175.12436	-355.53745	1449.3407	-184.02623	-473.15256	1351.1421	-164.231	-453.03351	1423.4224	-257.38998	-477.81854	1393.6639	-395.94955	-536.46069	1420.0157	-388.73645	-511.85532	1408.5684	-484.28128	54.101902	1463.6257	-165.34503	213.53123	1449.0466	-178.8251	351.26315	1352.1537	-169.04158	301.95642	1426.6915	-253.85112	296.27652	1396.882	-398.69971	356.05679	1434.7102	-398.53873	324.10172	1430.2736	-489.76489	-192.43051	966.1521	-297.28229	73.228638	994.60779	-274.13672	-131.09525	986.51349	-149.15057	-20.553894	987.15704	-137.16263	-214.99603	608.00104	-272.00934	-202.21394	502.36838	-237.12878	-160.97124	475.17267	-275.76773	-181.43291	93.215469	-173.63048	-134.66443	68.176697	-111.68565	-145.2511	49.967236	-372.04758	116.7455	684.08643	-265.57266	94.225807	502.89606	-246.27597	42.254368	478.31683	-291.86169	88.552681	104.06338	-188.15909	40.032776	63.069218	-119.13793	52.204487	47.769287	-382.75494	118.42363	40.463463	-336.63696	3.2952952	121.23887	-195.02286	-210.33604	43.778019	-323.18427	-101.60213	126.87457	-196.70929	88.732307	767.70624	-328.36984	44.599041	641.10413	-319.5213	-10.052463	491.0654	-236.79553	-206.59923	767.56256	-325.91849	-157.56799	632.80249	-318.47729	-106.86604	488.14206	-222.62375	-5.0298462	1287.1742	-77.614449	268.30142	1434.7356	-137.94954	134.28848	1465.1786	-153.98984	81.977974	1447.1567	-113.6834	76.965195	1450.4594	-219.70744	359.42242	1434.0933	-165.43909	348.47974	1427.2726	-483.05634	360.26263	1422.4434	-442.92355	302.57941	1422.2153	-494.66977	-207.91237	1458.7853	-222.8477	-212.57777	1455.5709	-129.00443	-297.95731	1466.9297	-146.67671	-409.47275	1439.2461	-137.1492	-492.24667	1431.5726	-160.187	-537.78638	1404.3928	-477.40536	-493.31015	1406.4448	-487.69058
3	0.02	-153.29015	1636.2014	-293.27618	-61.920799	1454.0562	-128.42159	-68.699547	1398.2729	-267.82489	-71.527763	1254.1219	-305.32425	-178.95093	1472.1464	-175.20927	-355.48868	1449.5149	-183.89218	-473.1207	1351.4084	-163.94363	-453.13678	1423.551	-257.185	-478.1178	1393.6339	-395.69635	-536.79022	1419.9335	-388.40616	-512.08746	1408.058	-484.05661	53.897675	1463.7455	-165.42937	213.35172	1449.3492	-178.93073	351.14368	1352.5623	-169.07162	301.79865	1426.9802	-253.87601	296.10593	1397.1125	-398.68427	355.84161	1435.0669	-398.56607	323.81863	1430.6222	-489.76202	-192.43709	966.17938	-297.35278	73.200661	994.6189	-274.16586	-131.10188	986.51813	-149.21185	-20.550272	987.17334	-137.23515	-214.99515	608.02264	-272.04623	-202.23009	502.38376	-237.16409	-160.99109	475.18823	-275.76712	-181.42949	93.238083	-173.62625	-134.67143	68.190392	-111.67571	-145.28226	49.972042	-372.02536	116.75846	684.09985	-265.59906	94.255898	502.91675	-246.26448	42.324059	478.3956	-291.93106	88.580193	104.10017	-188.17331	40.047184	63.047878	-119.15509	52.188362	47.803146	-382.74957	118.44114	40.457161	-336.64725	3.3100154	121.27627	-195.03456	-210.35007	43.78392	-323.17303	-101.57466	126.8913	-196.70177	88.715416	767.71222	-328.37671	44.595306	641.12726	-319.5304	-10.064128	491.11316	-236.78421	-206.60448	767.58606	-325.96948	-157.56403	632.79974	-318.51355	-106.88778	488.16391	-222.62035	-5.0604334	1287.2333	-77.717087	268.08832	1435.0967	-138.03735	134.04022	1465.3994	-154.07455	81.75042	1447.3378	-113.777	76.764656	1450.5874	-219.74915	359.2511	1434.5038	-165.47992	348.23288	1427.6642	-483.10007	360.06403	1422.8228	-442.94226	302.34003	1422.5031	-494.72839	-207.92854	1458.8928	-222.95639	-212.52342	1455.7424	-129.03127	-297.87054	1467.2006	-146.65182	-409.37732	1439.5337	-137.00929	-492.18698	1431.8744	-159.92726	-538.1601	1403.9349	-477.52014	-493.77197	1406.2826	-487.42371
4	0.03	-153.02576	1636.123	-294.12909	-61.96225	1454.1195	-128.547	-68.745171	1398.2629	-267.83868	-71.576019	1254.0587	-305.39609	-178.90677	1472.29	-175.29648	-355.422	1449.7086	-183.80972	-473.03439	1351.7247	-163.64172	-453.24585	1423.5974	-257.00912	-478.44974	1393.5654	-395.47159	-537.1488	1419.827	-388.1051	-512.6933	1407.9182	-484.05798	53.73996	1463.8628	-165.5305	213.11389	1449.5432	-178.97234	351.03622	1352.9109	-169.12801	301.62595	1427.1937	-253.92883	296.00562	1397.2435	-398.69861	355.68561	1435.3513	-398.64825	323.62018	1430.8741	-489.81277	-192.41202	966.1463	-297.45883	73.198524	994.58423	-274.25009	-131.08707	986.51727	-149.30048	-20.547817	987.18414	-137.30182	-215.01646	608.00403	-272.08987	-202.21211	502.35297	-237.21268	-160.98997	475.15302	-275.81223	-181.39255	93.18647	-173.63924	-134.60878	68.169533	-111.6858	-145.23531	49.932514	-372.05225	116.74258	684.06531	-265.60916	94.245415	502.8721	-246.28676	42.332066	478.34091	-291.96817	88.571289	104.05239	-188.17296	40.004669	62.939331	-119.1905	52.23616	47.767563	-382.76321	118.45405	40.431412	-336.65311	3.3390396	121.20251	-195.07727	-210.34886	43.771507	-323.19531	-101.55939	126.88565	-196.71672	88.720284	767.66797	-328.42615	44.617275	641.1051	-319.57214	-10.059614	491.0444	-236.81461	-206.59985	767.52393	-326.02805	-157.57401	632.75647	-318.57437	-106.86634	488.11295	-222.67763	-5.1214881	1287.298	-77.845589	267.92151	1435.4072	-138.10889	133.79657	1465.4376	-154.01593	81.548164	1447.5271	-113.84883	76.604195	1450.6703	-219.83998	359.12152	1434.8452	-165.5618	348.0437	1427.9796	-483.13171	359.83221	1423.036	-442.99585	302.12744	1422.7787	-494.7901	-207.92174	1458.9435	-223.00632	-212.34564	1455.9303	-129.07298	-297.7851	1467.4369	-146.58678	-409.2626	1439.8076	-136.90588	-492.12714	1432.1476	-159.73653	-538.65503	1404.0214	-476.92767	-494.29123	1406.0439	-487.33859
